# Blender v2.79 (sub 0) OBJ File: 'rock.blend'
# www.blender.org
mtllib rock1.mtl
o rock1_Cube
v 1.266907 -0.028916 0.001813
v -1.266907 -0.028916 0.001813
v 0.000000 -0.028916 -1.434461
v 0.000000 -0.028916 1.433935
v 0.747548 1.001788 0.001318
v 0.000000 -0.028916 0.002338
v 0.561807 1.097263 0.001141
v 0.000000 1.001788 -0.846166
v -0.000000 1.001788 0.846352
v -0.747548 1.001788 0.001318
v 0.000000 1.097263 -0.635772
v -0.000000 1.097263 0.636212
v -0.561807 1.097263 0.001141
v 0.326560 1.064566 0.015332
v 0.035265 1.064566 -0.329430
v 0.018776 1.064566 0.366168
v -0.285016 1.064566 0.030262
v 1.025042 -0.028916 0.906346
v 0.913898 -0.028916 1.037363
v -0.888109 -0.028916 -0.802902
v -0.771803 -0.028916 -0.936470
v 0.503955 1.001788 0.627668
v 0.615099 1.001788 0.496652
v -0.488185 1.001788 -0.400036
v -0.369338 1.001788 -0.535100
v 0.468490 1.097263 0.350131
v 0.357346 1.097263 0.481147
v -0.348872 1.097263 -0.260245
v -0.229618 1.097263 -0.395370
v 0.183053 1.064566 0.294882
v 0.283459 1.064566 0.176524
v -0.028552 1.064566 -0.207462
v -0.151846 1.064566 -0.064779
v 0.849015 -0.028916 -1.065597
v 1.043798 -0.028916 -0.835606
v -0.855912 -0.028916 1.062525
v -1.044476 -0.028916 0.833668
v -0.445969 1.001788 0.652830
v -0.634534 1.001788 0.423973
v 0.633856 1.001788 -0.425415
v 0.439073 1.001788 -0.655406
v -0.487924 1.097263 0.277452
v -0.299360 1.097263 0.506309
v 0.292463 1.097263 -0.508708
v 0.487247 1.097263 -0.278717
v 0.216830 1.064566 0.081834
v 0.017828 1.064566 -0.141912
v -0.265270 1.064566 0.104109
v -0.087263 1.064566 0.320154
v 0.302200 1.064566 -0.076102
v 0.118150 1.064566 -0.293419
v 0.103687 1.064566 0.213953
v -0.098220 1.064566 -0.006401
v 0.944873 0.652752 0.001506
v 0.850715 0.735542 0.001417
v 0.888685 0.684476 0.001453
v 0.000000 0.735542 -0.963027
v 0.000000 0.652752 -1.069682
v 0.000000 0.684476 -1.006036
v -0.000000 0.735542 0.963072
v -0.000000 0.652752 1.069599
v -0.000000 0.684476 1.006029
v -0.945247 0.652654 0.001506
v -0.850711 0.735553 0.001416
v -0.888793 0.684451 0.001452
v 0.770853 0.652752 0.652311
v 0.696532 0.735542 0.578035
v 0.726502 0.684476 0.607987
v 0.585388 0.735542 0.709052
v 0.659708 0.652752 0.783328
v 0.615358 0.684476 0.739004
v -0.449036 0.734097 -0.614407
v -0.512732 0.655647 -0.678021
v -0.475498 0.684901 -0.640807
v -0.630559 0.655618 -0.543771
v -0.567076 0.734112 -0.479980
v -0.593399 0.684896 -0.506496
v -0.601723 0.652752 0.808490
v -0.527402 0.735542 0.734213
v -0.557372 0.684476 0.764166
v -0.715966 0.735542 0.505356
v -0.790287 0.652752 0.579632
v -0.745936 0.684476 0.535308
v 0.594826 0.652752 -0.811254
v 0.520505 0.735542 -0.736888
v 0.550475 0.684476 -0.766876
v 0.715289 0.735542 -0.506897
v 0.789610 0.652752 -0.581263
v 0.745259 0.684476 -0.536885
v 1.090610 0.547324 0.001646
v 0.991951 0.640451 0.001551
v -1.090612 0.547319 0.001645
v -0.991530 0.640561 0.001550
v 0.000000 0.640451 -1.123009
v 0.000000 0.547323 -1.234764
v -0.000000 0.640451 1.122861
v -0.000000 0.547325 1.234480
v 0.885887 0.547325 0.767276
v 0.808013 0.640451 0.689449
v 0.696869 0.640451 0.820465
v 0.774742 0.547325 0.898292
v -0.751298 0.548269 -0.664805
v -0.682709 0.637954 -0.595988
v -0.565204 0.637920 -0.730508
v -0.633952 0.548278 -0.799196
v 0.709860 0.547323 -0.926358
v 0.631986 0.640451 -0.848436
v 0.826770 0.640451 -0.618445
v 0.904644 0.547323 -0.696367
v -0.716757 0.547325 0.923454
v -0.638883 0.640451 0.845627
v -0.827447 0.640451 0.616770
v -0.905321 0.547325 0.694597
v 1.226840 0.102048 0.001775
v 0.993416 0.102048 0.874739
v 1.012172 0.102047 -0.803961
v -1.226840 0.102046 0.001775
v -0.857016 0.102262 -0.771516
v -1.012850 0.102048 0.802061
v 0.817389 0.102047 -1.033952
v 0.000000 0.102047 -1.389075
v -0.740473 0.102264 -0.905271
v -0.000000 0.102048 1.388605
v -0.824286 0.102048 1.030918
v 0.882272 0.102048 1.005756
v 0.456003 1.097263 0.001040
v 0.421859 1.090086 0.004167
v 0.004121 1.090086 -0.469417
v 0.000000 1.097263 -0.515924
v 0.004121 1.090086 0.476382
v -0.000000 1.097263 0.516509
v -0.455909 1.097263 0.001040
v -0.413699 1.090110 0.004156
v 0.247750 1.090086 0.370663
v 0.273832 1.097263 0.397684
v 0.384976 1.097263 0.266667
v 0.358894 1.090086 0.239646
v -0.125992 1.091585 -0.292308
v -0.148733 1.097263 -0.314437
v -0.267683 1.097263 -0.179007
v -0.244895 1.091652 -0.156902
v -0.215846 1.097263 0.422846
v -0.181522 1.090086 0.395825
v -0.370086 1.090086 0.166968
v -0.404410 1.097263 0.193989
v 0.208949 1.097263 -0.425144
v 0.182867 1.090086 -0.391759
v 0.377651 1.090086 -0.161768
v 0.403732 1.097263 -0.195153
v 0.316381 1.064566 0.193764
v 0.205237 1.064566 0.324781
v -0.176443 1.064566 -0.091771
v -0.058732 1.064566 -0.227992
v 0.364088 1.064566 0.015349
v 0.018776 1.064566 0.405693
v 0.018776 1.064566 -0.376126
v -0.326537 1.064566 0.015349
v -0.298263 1.064566 0.121086
v -0.109699 1.064566 0.349943
v 0.335138 1.064566 -0.093314
v 0.140354 1.064566 -0.323306
vn 0.7632 0.5132 0.3925
vn 0.8700 0.4930 0.0004
vn 0.7674 0.6412 0.0003
vn 0.6647 0.6627 0.3449
vn -0.8517 0.5092 -0.1238
vn -0.7664 0.5123 0.3874
vn -0.6670 0.6629 0.3402
vn -0.7608 0.6384 -0.1165
vn 0.0000 0.8714 0.4906
vn 0.2814 0.8774 0.3885
vn 0.1963 0.9440 0.2651
vn 0.0000 0.9506 0.3105
vn 0.5644 0.3201 -0.7609
vn 0.5089 -0.5330 -0.6759
vn -0.0652 -0.4821 -0.8737
vn -0.0814 0.3360 -0.9383
vn -0.0580 0.8694 -0.4907
vn -0.3285 0.8696 -0.3686
vn -0.2466 0.9313 -0.2680
vn -0.0335 0.9559 -0.2916
vn 0.7636 0.5133 -0.3918
vn 0.6650 0.6628 -0.3443
vn 0.0000 -1.0000 0.0000
vn 0.0000 -0.4992 0.8665
vn -0.5137 -0.5317 0.6733
vn -0.7433 -0.5402 0.3944
vn -0.8520 -0.5186 -0.0722
vn 0.7417 -0.5386 -0.3997
vn 0.8424 -0.5388 0.0004
vn 0.0000 0.3271 0.9450
vn 0.0000 0.5383 0.8427
vn -0.5055 0.5430 0.6705
vn -0.5693 0.3202 0.7572
vn -0.5149 0.8550 -0.0609
vn -0.4419 0.8708 0.2154
vn -0.3044 0.9397 0.1561
vn -0.3348 0.9414 -0.0397
vn -0.2845 0.8772 0.3868
vn -0.1977 0.9443 0.2631
vn -0.4150 0.8661 -0.2786
vn -0.3018 0.9293 -0.2129
vn -0.9493 0.3011 -0.0896
vn -0.8557 0.5105 -0.0848
vn -0.7089 0.5207 -0.4757
vn -0.7956 0.3039 -0.5241
vn -0.6916 -0.5584 -0.4581
vn -0.5461 -0.5555 -0.6270
vn 0.0000 0.5450 0.8384
vn 0.5034 0.5279 0.6840
vn 0.4405 0.6710 0.5964
vn 0.0000 0.6594 0.7517
vn 0.5149 0.8572 0.0002
vn 0.4409 0.8707 -0.2181
vn 0.3025 0.9401 -0.1574
vn 0.3567 0.9342 0.0002
vn -0.6252 0.3098 -0.7163
vn -0.8462 0.3091 0.4339
vn -0.7517 0.5331 0.3883
vn 0.2713 0.9625 0.0001
vn 0.2318 0.9667 0.1079
vn 0.4407 0.8706 0.2185
vn 0.3024 0.9400 0.1577
vn 0.8430 0.3097 0.4399
vn 0.7489 0.5332 0.3936
vn 0.5007 0.5432 0.6740
vn 0.5640 0.3199 0.7613
vn 0.5038 0.5282 -0.6835
vn -0.1143 0.5606 -0.8201
vn -0.1086 0.6580 -0.7451
vn 0.4408 0.6712 -0.5960
vn -0.7075 0.4841 -0.5148
vn -0.5981 0.6629 -0.4504
vn -0.5081 0.5286 0.6800
vn -0.4450 0.6705 0.5936
vn -0.2903 0.9569 0.0016
vn -0.2235 0.9675 0.1177
vn -0.1933 0.9778 0.0805
vn -0.2403 0.9706 -0.0090
vn 0.2319 0.9667 -0.1076
vn -0.1886 0.9708 -0.1481
vn -0.2814 0.9573 -0.0656
vn 0.0520 0.9986 0.0108
vn 0.0690 0.9953 0.0675
vn 0.1421 0.9691 0.2015
vn 0.0000 0.9648 0.2629
vn -0.5997 0.4898 -0.6329
vn -0.5213 0.6655 -0.5341
vn -0.5631 0.5267 -0.6368
vn -0.1440 0.9689 0.2009
vn 0.0001 0.9714 -0.2375
vn -0.1620 0.9621 -0.2192
vn -0.1283 0.9753 -0.1796
vn -0.0164 0.9758 -0.2182
vn 0.1364 0.9742 -0.1799
vn 0.0993 0.9835 -0.1511
vn 0.1707 0.9699 0.1736
vn 0.1864 0.9806 0.0611
vn 0.1692 0.9831 0.0694
vn 0.0961 0.9904 0.0992
vn -0.1333 0.9742 0.1822
vn 0.0577 0.9843 0.1665
vn 0.0693 0.9836 0.1667
vn -0.1064 0.9845 0.1390
vn -0.1692 0.9715 -0.1659
vn -0.0670 0.9606 -0.2695
vn 0.1422 0.9691 -0.2012
vn -0.2321 0.9669 0.1062
vn 0.0627 0.9974 -0.0340
vn 0.0773 0.9951 0.0604
vn 0.0077 0.9991 0.0411
vn -0.0429 0.9974 0.0574
vn -0.0493 0.9967 -0.0644
vn -0.0732 0.9964 -0.0418
vn -0.2528 0.9584 -0.1325
vn -0.2130 0.9722 -0.0972
vn -0.0862 0.9962 0.0010
vn 0.1958 0.9756 -0.0988
vn 0.1479 0.9863 -0.0733
vn 0.0012 0.9979 -0.0653
vn 0.0000 1.0000 0.0000
vn 0.0444 0.9975 -0.0553
vn 0.1978 0.9690 0.1479
vn 0.1122 0.9902 0.0833
vn 0.5010 0.5434 -0.6735
vn 0.7492 0.5332 -0.3929
vn 0.8433 0.3098 -0.4391
vn 0.7414 -0.5386 0.4003
vn 0.5084 -0.5332 0.6761
vn 0.2815 0.8775 -0.3881
vn 0.1963 0.9441 -0.2648
vn -0.0667 0.9970 0.0392
vn -0.5396 0.7481 -0.3862
vn -0.4488 0.7531 -0.4809
vn 0.3614 0.7931 0.4902
vn 0.5541 0.7818 0.2858
vn 0.6413 0.7673 0.0003
vn 0.0000 0.8115 0.5843
vn -0.0758 0.8239 -0.5616
vn -0.6169 0.7824 -0.0846
vn 0.5543 0.7819 -0.2853
vn 0.3615 0.7933 -0.4898
vn -0.5570 0.7809 0.2826
vn -0.3642 0.7939 0.4869
vn 0.8605 0.5094 0.0004
vn 0.9562 0.2926 0.0004
vn -0.0769 0.5395 -0.8384
usemtl Material
s 1
f 67//1 55//2 5//3 23//4
f 64//5 81//6 39//7 10//8
f 96//9 100//10 70//11 61//12
f 120//13 34//14 3//15 121//16
f 94//17 104//18 73//19 58//20
f 55//2 87//21 40//22 5//3
f 6//23 4//24 36//25 37//26 2//27
f 34//14 35//28 1//29 6//23 3//15
f 123//30 97//31 110//32 124//33
f 93//34 112//35 82//36 63//37
f 111//38 96//9 61//12 78//39
f 103//40 93//34 63//37 75//41
f 117//42 92//43 102//44 118//45
f 3//15 6//23 2//27 20//46 21//47
f 60//48 69//49 22//50 9//51
f 91//52 108//53 88//54 54//55
f 121//16 3//15 21//47 122//56
f 119//57 113//58 92//43 117//42
f 23//4 5//3 7//59 26//60
f 99//61 91//52 54//55 66//62
f 115//63 98//64 101//65 125//66
f 85//67 57//68 8//69 41//70
f 76//71 64//5 10//8 24//72
f 79//73 60//48 9//51 38//74
f 127//75 148//76 160//77 154//78
f 5//3 40//22 45//79 7//59
f 28//80 13//81 132//82 140//83
f 9//51 22//50 27//84 12//85
f 57//68 72//86 25//87 8//69
f 118//45 102//44 105//88 122//56
f 125//66 101//65 97//31 123//30
f 38//74 9//51 12//85 43//89
f 130//90 134//91 151//92 155//93
f 143//94 130//90 155//93 159//95
f 141//96 133//97 157//98 152//99
f 147//100 128//101 156//102 161//103
f 24//72 10//8 13//81 28//80
f 8//69 25//87 29//104 11//105
f 41//70 8//69 11//105 44//106
f 10//8 39//7 42//107 13//81
f 13//81 42//107 145//108 132//82
f 11//105 29//104 139//109 129//110
f 44//106 11//105 129//110 146//111
f 135//112 27//84 26//60 136//113
f 137//114 127//75 154//78 150//115
f 26//60 7//59 126//116 136//113
f 133//97 144//117 158//118 157//98
f 12//85 27//84 135//112 131//119
f 15//120 32//120 47//120 51//120
f 49//120 16//120 30//120 52//120
f 53//120 33//120 17//120 48//120
f 43//89 12//85 131//119 142//121
f 52//120 30//120 31//120 46//120
f 128//101 138//122 153//123 156//102
f 50//120 46//120 31//120 14//120
f 99//61 66//62 70//11 100//10
f 73//19 104//18 103//40 75//41
f 120//13 106//124 109//125 116//126
f 67//1 23//4 22//50 69//49
f 27//84 22//50 23//4 26//60
f 25//87 72//86 76//71 24//72
f 29//104 25//87 24//72 28//80
f 139//109 29//104 28//80 140//83
f 158//118 144//117 143//94 159//95
f 137//114 150//115 151//92 134//91
f 141//96 152//99 153//123 138//122
f 1//29 18//127 19//128 4//24 6//23
f 33//120 53//120 47//120 32//120
f 88//54 108//53 107//129 84//130
f 111//38 78//39 82//36 112//35
f 79//73 38//74 39//7 81//6
f 85//67 41//70 40//22 87//21
f 45//79 40//22 41//70 44//106
f 124//33 110//32 113//58 119//57
f 44//106 146//111 149//131 45//79
f 147//100 161//103 160//77 148//76
f 38//74 43//89 42//107 39//7
f 49//120 52//120 53//120 48//120
f 52//120 46//120 47//120 53//120
f 51//120 47//120 46//120 50//120
f 145//108 42//107 43//89 142//121
f 107//129 94//17 58//20 84//130
f 73//19 75//41 77//132 74//133
f 74//133 77//132 76//71 72//86
f 67//1 69//49 71//134 68//135
f 68//135 71//134 70//11 66//62
f 55//2 67//1 68//135 56//136
f 56//136 68//135 66//62 54//55
f 69//49 60//48 62//137 71//134
f 71//134 62//137 61//12 70//11
f 72//86 57//68 59//138 74//133
f 74//133 59//138 58//20 73//19
f 64//5 76//71 77//132 65//139
f 65//139 77//132 75//41 63//37
f 85//67 87//21 89//140 86//141
f 86//141 89//140 88//54 84//130
f 79//73 81//6 83//142 80//143
f 80//143 83//142 82//36 78//39
f 87//21 55//2 56//136 89//140
f 89//140 56//136 54//55 88//54
f 57//68 85//67 86//141 59//138
f 59//138 86//141 84//130 58//20
f 60//48 79//73 80//143 62//137
f 62//137 80//143 78//39 61//12
f 81//6 64//5 65//139 83//142
f 83//142 65//139 63//37 82//36
f 116//126 109//125 90//144 114//145
f 99//61 100//10 101//65 98//64
f 103//40 104//18 105//88 102//44
f 91//52 99//61 98//64 90//144
f 100//10 96//9 97//31 101//65
f 93//34 103//40 102//44 92//43
f 104//18 94//17 95//146 105//88
f 107//129 108//53 109//125 106//124
f 111//38 112//35 113//58 110//32
f 94//17 107//129 106//124 95//146
f 108//53 91//52 90//144 109//125
f 96//9 111//38 110//32 97//31
f 112//35 93//34 92//43 113//58
f 114//145 90//144 98//64 115//63
f 1//29 114//145 115//63 18//127
f 35//28 116//126 114//145 1//29
f 36//25 124//33 119//57 37//26
f 34//14 120//13 116//126 35//28
f 19//128 125//66 123//30 4//24
f 20//46 118//45 122//56 21//47
f 18//127 115//63 125//66 19//128
f 37//26 119//57 117//42 2//27
f 95//146 121//16 122//56 105//88
f 2//27 117//42 118//45 20//46
f 4//24 123//30 124//33 36//25
f 106//124 120//13 121//16 95//146
f 135//112 136//113 137//114 134//91
f 139//109 140//83 141//96 138//122
f 127//75 137//114 136//113 126//116
f 134//91 130//90 131//119 135//112
f 138//122 128//101 129//110 139//109
f 133//97 141//96 140//83 132//82
f 143//94 144//117 145//108 142//121
f 147//100 148//76 149//131 146//111
f 130//90 143//94 142//121 131//119
f 144//117 133//97 132//82 145//108
f 148//76 127//75 126//116 149//131
f 128//101 147//100 146//111 129//110
f 7//59 45//79 149//131 126//116
f 31//120 30//120 151//92 150//115
f 33//120 32//120 153//123 152//99
f 14//120 31//120 150//115 154//78
f 30//120 16//120 155//93 151//92
f 32//120 15//120 156//102 153//123
f 17//120 33//120 152//99 157//98
f 49//120 48//120 158//118 159//95
f 51//120 50//120 160//77 161//103
f 16//120 49//120 159//95 155//93
f 48//120 17//120 157//98 158//118
f 50//120 14//120 154//78 160//77
f 15//120 51//120 161//103 156//102
