# Blender v2.79 (sub 0) OBJ File: 'rock.blend'
# www.blender.org
mtllib rock2.mtl
o rock2_Cube.001
v 0.883833 0.842503 0.761615
v 0.902545 0.021943 -0.648718
v 0.046903 0.842503 0.640452
v 0.180832 0.021943 -0.772657
v 0.197369 0.842503 0.761615
v 0.541580 0.021943 -0.710706
v 0.540498 0.842503 0.761615
v -0.977384 0.030671 0.699568
v -1.006129 0.021943 0.679961
v 0.640039 0.851137 0.093685
v 0.637432 0.842503 0.122740
v -0.977814 0.030680 -0.700030
v -1.005575 0.021943 -0.679887
v 0.589869 0.030686 0.808518
v 0.593325 0.021943 0.788200
v 0.999151 0.030686 0.808518
v 1.005136 0.021943 0.788200
v 0.744170 0.936166 -0.468633
v 0.758446 0.872920 -0.453990
v -1.189698 0.021943 0.054823
v -1.190221 0.021943 0.013774
v 0.508382 0.676411 -0.653429
v 0.500711 0.805684 -0.627213
v 1.187099 0.021943 0.014322
v 1.190506 0.021943 0.054931
v 1.059863 0.881148 0.070053
v 0.954539 0.859025 -0.138940
v 0.937077 0.920341 -0.137538
v 1.022719 0.947715 0.054994
v 0.000000 0.021943 -0.679887
v -0.000007 0.030684 -0.700411
v 0.019806 0.021943 -0.708698
v 0.095710 0.899036 -0.490472
v -0.078627 0.857343 -0.517066
v 0.000000 0.021943 0.679961
v -0.000007 0.030685 0.700424
v 0.071614 0.850900 -0.045154
v 0.050167 0.851143 -0.067649
v -0.121482 0.839917 -0.024011
v -0.100800 0.842503 0.061769
v 0.000000 0.021943 0.013774
v 0.000000 0.021943 0.054823
v 0.247706 0.916723 -0.654615
v 0.244128 0.865660 -0.657953
v 0.180832 0.030686 0.808518
v 0.181761 0.021943 0.788200
v 0.217613 0.850992 0.090006
v 0.215494 0.842503 0.120804
v 0.215318 0.021943 0.013774
v 0.215286 0.021943 0.054823
v 0.199801 0.675095 -0.701329
v 0.254836 0.803591 -0.651768
v 0.774106 0.808386 -0.450022
v 0.801110 0.680602 -0.486541
v 1.082443 0.852673 0.060082
v 1.111683 0.833766 0.055033
v 1.021809 0.705798 -0.134422
v 0.976941 0.814165 -0.144125
v 0.921203 0.833766 0.808518
v 0.903761 0.842503 0.787206
v 0.180832 0.833766 0.808518
v 0.188346 0.842503 0.787206
v 0.006859 0.837496 0.642171
v -0.000629 0.827829 0.663309
v -0.117069 0.683161 -0.646387
v -0.235598 0.802162 -0.501244
v -0.148339 0.836559 -0.000540
v -0.148339 0.836559 0.058821
v 0.249999 1.048640 -0.028551
v 0.287906 1.059346 -0.056283
v 0.886089 1.059514 -0.151320
v 0.900071 1.134946 -0.052959
v 0.912784 1.124761 -0.027290
v 0.135455 1.021310 -0.161251
v 0.171805 1.031240 -0.190390
v 0.113263 1.018177 -0.185295
v 0.252473 1.001359 -0.630516
v 0.268358 1.059346 -0.617534
v 0.713638 1.048567 -0.474858
v 0.697345 1.136220 -0.528855
v 0.125129 0.980718 -0.508820
v 0.170925 1.031805 -0.557869
v -0.571414 0.805855 0.618070
v -0.588402 0.813101 0.594607
v -0.884677 0.669946 0.609120
v -0.896964 0.679405 0.585811
v -0.913399 0.664042 0.587159
v -0.919405 0.626075 -0.646365
v -0.945938 0.621309 -0.624744
v -0.931140 0.636756 -0.624277
v -0.611314 0.774726 -0.645097
v -0.627806 0.782507 -0.623052
v -1.067672 0.658118 0.063600
v -1.069213 0.655820 0.004724
v -1.088454 0.641201 0.017271
v -1.086411 0.642624 0.058363
v -0.761271 0.786292 0.062756
v -0.762366 0.784874 0.003496
v 0.545946 0.842503 0.787206
v 0.550907 0.833766 0.808518
v 0.702764 0.021943 0.054823
v 0.701276 0.021943 0.013774
v 0.487786 0.934218 -0.625983
v 0.497629 0.864201 -0.620367
v 0.586701 1.177344 -0.054536
v 0.592756 1.167391 -0.029537
v 0.478134 1.048689 -0.600113
v 0.474966 1.177344 -0.571305
v -0.931031 0.350309 0.654344
v -0.959764 0.342992 0.633560
v -1.139338 0.331572 0.015523
v -1.138055 0.332283 0.056593
v -0.948609 0.328378 -0.673198
v -0.975757 0.321626 -0.652315
v -0.000318 0.429257 0.681866
v 0.960177 0.432226 0.808518
v 0.570388 0.432226 0.808518
v 0.180832 0.432226 0.808518
v 1.151095 0.427854 0.054982
v 1.147800 0.427854 0.014553
v 0.521887 0.427846 -0.710706
v 0.863147 0.427850 -0.648718
v 0.180832 0.427846 -0.772657
v -0.000303 0.409515 -0.682186
v -0.504195 0.030677 0.699982
v -0.536367 0.383786 0.666015
v -0.519665 0.030682 -0.700208
v -0.560597 0.361576 -0.676875
vn 0.6119 0.0594 0.7887
vn 0.5305 0.5010 0.6838
vn 0.0000 0.5571 0.8304
vn 0.0000 0.0000 1.0000
vn -0.1356 0.3172 -0.9386
vn 0.3489 0.0199 -0.9369
vn 0.3307 0.1693 -0.9284
vn -0.0438 0.2649 -0.9633
vn 0.7097 0.1364 -0.6912
vn 0.6874 0.2534 -0.6806
vn -0.1024 0.9341 -0.3419
vn -0.2093 0.9180 -0.3369
vn -0.2520 0.9666 -0.0456
vn -0.1311 0.9913 -0.0111
vn 0.7693 -0.6357 0.0630
vn 0.9944 0.1057 -0.0060
vn 0.8916 0.4203 -0.1686
vn 0.5294 -0.4137 0.7407
vn 0.6617 -0.6887 0.2961
vn -0.3139 0.6392 -0.7020
vn -0.5922 0.6717 -0.4451
vn -0.3298 0.9440 -0.0005
vn -0.3352 0.9386 0.0814
vn -0.3392 0.1122 -0.9340
vn -0.3672 0.3879 -0.8454
vn -0.0269 0.5688 -0.8220
vn -0.0104 0.0793 -0.9968
vn 0.5553 0.8314 0.0205
vn 0.1732 0.9828 0.0634
vn 0.2506 0.9449 0.2104
vn 0.6673 0.7143 -0.2105
vn 0.1234 -0.7041 -0.6993
vn 0.5149 -0.5910 -0.6209
vn 0.7479 -0.6377 -0.1843
vn 0.0000 -1.0000 0.0000
vn -0.0135 0.9586 0.2842
vn -0.0111 0.9999 0.0043
vn -0.9827 0.1522 -0.1057
vn -0.8761 0.4747 -0.0838
vn -0.7967 0.3938 -0.4585
vn -0.8351 0.1426 -0.5312
vn 0.3103 0.0947 -0.9459
vn -0.2332 0.3419 -0.9103
vn -0.3470 0.2000 -0.9163
vn 0.2567 0.1407 -0.9562
vn -0.0526 0.9981 0.0314
vn -0.0777 0.9968 0.0190
vn -0.0957 0.9954 0.0015
vn -0.1244 0.9802 0.1541
vn -0.3193 0.0482 0.9464
vn -0.2949 0.6331 0.7157
vn -0.1336 0.6104 0.7807
vn -0.0389 0.0975 0.9944
vn -0.0083 0.9963 0.0850
vn -0.0201 0.9996 0.0194
vn 0.8123 0.3296 -0.4812
vn 0.7704 0.3826 -0.5099
vn 0.0000 -0.9794 0.2018
vn -0.1748 0.8717 0.4578
vn -0.0093 0.6091 0.7930
vn -0.0657 0.7849 0.6161
vn -0.3573 0.7522 0.5536
vn -0.6239 0.7159 -0.3135
vn -0.3888 0.9056 0.1691
vn -0.7197 0.6847 0.1145
vn -0.7942 0.4827 -0.3691
vn -0.3001 0.0098 0.9539
vn -0.2796 0.5182 0.8083
vn -0.0568 -0.9886 -0.1392
vn -0.3372 -0.6984 -0.6312
vn -0.0941 -0.6479 -0.7559
vn 0.8528 0.2581 -0.4540
vn 0.7032 0.1300 -0.6990
vn 0.7137 0.1315 -0.6880
vn 0.8762 0.2202 -0.4286
vn -0.0936 0.1063 -0.9899
vn -0.1972 0.0832 -0.9768
vn -0.1069 0.4025 -0.9091
vn -0.0655 0.3323 -0.9409
vn 0.2077 0.1743 -0.9625
vn 0.2747 0.3048 -0.9119
vn 0.6557 0.3391 -0.6745
vn 0.6008 0.2181 -0.7690
vn -0.0959 0.9701 0.2227
vn 0.0000 0.9811 0.1933
vn -0.3658 0.8712 0.3273
vn -0.4601 0.8283 0.3196
vn -0.1809 0.9834 0.0102
vn -0.3436 0.7782 -0.5256
vn -0.2494 0.9682 0.0167
vn -0.2357 0.9402 0.2459
vn -0.0191 0.7955 -0.6056
vn -0.1210 0.9860 0.1143
vn 0.5143 0.5658 -0.6444
vn 0.6185 0.7815 -0.0818
vn -0.0752 -0.9701 0.2309
vn -0.0396 -0.9850 0.1679
vn -0.5289 0.7709 -0.3550
vn -0.5484 0.8312 -0.0916
vn -0.7797 -0.6145 0.1203
vn -0.6455 -0.5783 0.4988
vn -0.5354 0.8414 0.0730
vn -0.5017 0.8012 0.3261
vn -0.6482 -0.5959 -0.4739
vn -0.7790 -0.6206 -0.0895
vn 0.6729 0.6225 0.3995
vn 0.6143 0.6902 0.3824
vn 0.8313 0.2857 -0.4767
vn 0.9308 0.1393 -0.3381
vn -0.3024 -0.4850 -0.8205
vn -0.3669 0.4452 0.8167
vn -0.7634 0.4416 0.4713
vn -0.8651 0.4847 0.1288
vn -0.2569 -0.4275 -0.8667
vn -0.0047 -0.5213 -0.8533
vn 0.0000 -0.5499 0.8352
vn -0.2350 -0.5046 0.8307
vn -0.2474 -0.5714 0.7825
vn -0.0115 -0.5089 0.8607
vn -0.2593 -0.4011 0.8785
vn -0.3385 0.1676 0.9259
vn -0.8104 0.1908 0.5539
vn -0.9731 0.1663 0.1596
usemtl None
s 1
f 116//1 59//2 100//3 117//4
f 44//5 104//6 23//7 52//8
f 104//6 19//9 53//10 23//7
f 66//11 92//12 98//13 67//14
f 25//15 119//16 56//17 59//2 116//1 16//18 17//19
f 78//20 82//21 75//22 70//23
f 113//24 88//25 91//26 128//27
f 26//28 1//29 60//30 55//31
f 6//32 2//33 24//34 102//35
f 26//28 11//36 7//37 1//29
f 111//38 95//39 89//40 114//41
f 103//42 43//43 77//44 107//45
f 3//46 40//47 68//48 63//49
f 115//50 64//51 83//52 126//53
f 48//54 40//47 3//46 5//55
f 19//9 27//56 58//57 53//10
f 101//35 25//15 17//19 15//58
f 47//59 10//60 106//61 69//62
f 11//36 48//54 5//55 7//37
f 33//63 38//64 76//65 81//66
f 118//67 61//68 64//51 115//50
f 30//69 32//70 4//71 49//35 41//35
f 28//72 18//73 79//74 71//75
f 123//76 124//77 65//78 51//79
f 121//80 22//81 54//82 122//83
f 7//37 5//55 62//84 99//85
f 43//43 33//63 81//66 77//44
f 37//86 47//59 69//62 74//87
f 39//88 34//89 66//11 67//14
f 68//48 97//90 84//91 63//49
f 108//92 78//20 70//23 105//93
f 80//94 108//92 105//93 72//95
f 42//35 50//35 46//96 35//97
f 34//89 44//5 52//8 66//11
f 18//73 103//42 107//45 79//74
f 4//71 6//32 102//35 49//35
f 98//13 92//12 90//98 94//99
f 20//100 42//35 35//97 9//101
f 84//91 97//90 93//102 86//103
f 5//55 3//46 63//49 62//84
f 123//76 51//79 22//81 121//80
f 13//104 30//69 41//35 21//105
f 10//60 29//106 73//107 106//61
f 50//35 101//35 15//58 46//96
f 1//29 7//37 99//85 60//30
f 117//4 100//3 61//68 118//67
f 122//83 54//82 57//108 120//109
f 26//28 27//56 28//72 29//106
f 30//69 31//110 32//70
f 37//86 38//64 39//88 40//47
f 55//31 56//17 57//108 58//57
f 71//75 72//95 73//107
f 74//87 75//22 76//65
f 85//111 86//103 87//112
f 88//25 89//40 90//98
f 93//102 94//99 95//39 96//113
f 60//30 99//85 100//3 59//2
f 30//69 13//104 12//114 127//115 31//110
f 23//7 53//10 54//82 22//81
f 55//31 60//30 59//2 56//17
f 15//58 17//19 16//18 14//116
f 43//43 103//42 104//6 44//5
f 25//15 101//35 102//35 24//34
f 53//10 58//57 57//108 54//82
f 11//36 26//28 29//106 10//60
f 42//35 20//100 21//105 41//35
f 119//16 25//15 24//34 120//109
f 46//96 15//58 14//116 45//117
f 48//54 11//36 10//60 47//59
f 9//101 35//97 36//118 125//119 8//120
f 62//84 63//49 64//51 61//68
f 52//8 23//7 22//81 51//79
f 50//35 42//35 41//35 49//35
f 66//11 52//8 51//79 65//78
f 35//97 46//96 45//117 36//118
f 40//47 48//54 47//59 37//86
f 99//85 62//84 61//68 100//3
f 101//35 50//35 49//35 102//35
f 28//72 71//75 73//107 29//106
f 103//42 18//73 19//9 104//6
f 18//73 28//72 27//56 19//9
f 34//89 39//88 38//64 33//63
f 33//63 43//43 44//5 34//89
f 58//57 27//56 26//28 55//31
f 68//48 40//47 39//88 67//14
f 106//61 73//107 72//95 105//93
f 74//87 69//62 70//23 75//22
f 108//92 80//94 79//74 107//45
f 80//94 72//95 71//75 79//74
f 81//66 76//65 75//22 82//21
f 82//21 78//20 77//44 81//66
f 76//65 38//64 37//86 74//87
f 93//102 97//90 98//13 94//99
f 91//26 88//25 90//98 92//12
f 89//40 95//39 94//99 90//98
f 85//111 83//52 84//91 86//103
f 96//113 87//112 86//103 93//102
f 109//121 85//111 87//112 110//122
f 111//38 21//105 20//100 112//123
f 63//49 84//91 83//52 64//51
f 67//14 98//13 97//90 68//48
f 65//78 91//26 92//12 66//11
f 113//24 12//114 13//104 114//41
f 69//62 106//61 105//93 70//23
f 78//20 108//92 107//45 77//44
f 110//122 87//112 96//113 112//123
f 9//101 110//122 112//123 20//100
f 88//25 113//24 114//41 89//40
f 95//39 111//38 112//123 96//113
f 8//120 109//121 110//122 9//101
f 21//105 111//38 114//41 13//104
f 14//116 117//4 118//67 45//117
f 45//117 118//67 115//50 36//118
f 16//18 116//1 117//4 14//116
f 56//17 119//16 120//109 57//108
f 2//33 122//83 120//109 24//34
f 4//71 123//76 121//80 6//32
f 6//32 121//80 122//83 2//33
f 32//70 31//110 124//77 123//76 4//71
f 12//114 113//24 128//27 127//115
f 36//118 115//50 126//53 125//119
f 126//53 83//52 85//111 109//121
f 125//119 126//53 109//121 8//120
f 127//115 128//27 124//77 31//110
f 128//27 91//26 65//78 124//77
