# Blender v2.79 (sub 0) OBJ File: 'rock.blend'
# www.blender.org
mtllib rock2.mtl
o rock2_Cube.001
v 0.883833 0.842503 0.761615
v 0.902545 0.021943 -0.648718
v 0.046903 0.842503 0.640452
v 0.180832 0.021943 -0.772657
v 0.197369 0.842503 0.761615
v 0.541580 0.021943 -0.710706
v 0.540498 0.842503 0.761615
v -0.977384 0.030671 0.699568
v -1.006129 0.021943 0.679961
v 0.640039 0.851137 0.093685
v 0.637432 0.842503 0.122740
v -0.977814 0.030680 -0.700030
v -1.005575 0.021943 -0.679887
v 0.589869 0.030686 0.808518
v 0.593325 0.021943 0.788200
v 0.999151 0.030686 0.808518
v 1.005136 0.021943 0.788200
v 0.744170 0.936166 -0.468633
v 0.758446 0.872920 -0.453990
v -1.189698 0.021943 0.054823
v -1.190221 0.021943 0.013774
v 0.508382 0.676411 -0.653429
v 0.500711 0.805684 -0.627213
v 1.187099 0.021943 0.014322
v 1.190506 0.021943 0.054931
v 1.059863 0.881148 0.070053
v 0.954539 0.859025 -0.138940
v 0.937077 0.920341 -0.137538
v 1.022719 0.947715 0.054994
v 0.000000 0.021943 -0.679887
v -0.000007 0.030684 -0.700411
v 0.019806 0.021943 -0.708698
v 0.095710 0.899036 -0.490472
v -0.078627 0.857343 -0.517066
v 0.000000 0.021943 0.679961
v -0.000007 0.030685 0.700424
v 0.071614 0.850900 -0.045154
v 0.050167 0.851143 -0.067649
v -0.121482 0.839917 -0.024011
v -0.100800 0.842503 0.061769
v 0.000000 0.021943 0.013774
v 0.000000 0.021943 0.054823
v 0.247706 0.916723 -0.654615
v 0.244128 0.865660 -0.657953
v 0.180832 0.030686 0.808518
v 0.181761 0.021943 0.788200
v 0.217613 0.850992 0.090006
v 0.215494 0.842503 0.120804
v 0.215318 0.021943 0.013774
v 0.215286 0.021943 0.054823
v 0.199801 0.675095 -0.701329
v 0.254836 0.803591 -0.651768
v 0.774106 0.808386 -0.450022
v 0.801110 0.680602 -0.486541
v 1.082443 0.852673 0.060082
v 1.111683 0.833766 0.055033
v 1.021809 0.705798 -0.134422
v 0.976941 0.814165 -0.144125
v 0.921203 0.833766 0.808518
v 0.903761 0.842503 0.787206
v 0.180832 0.833766 0.808518
v 0.188346 0.842503 0.787206
v 0.006859 0.837496 0.642171
v -0.000629 0.827829 0.663309
v -0.117069 0.683161 -0.646387
v -0.235598 0.802162 -0.501244
v -0.148339 0.836559 -0.000540
v -0.148339 0.836559 0.058821
v 0.249999 1.048640 -0.028551
v 0.287906 1.059346 -0.056283
v 0.886089 1.059514 -0.151320
v 0.900071 1.134946 -0.052959
v 0.912784 1.124761 -0.027290
v 0.135455 1.021310 -0.161251
v 0.171805 1.031240 -0.190390
v 0.113263 1.018177 -0.185295
v 0.252473 1.001359 -0.630516
v 0.268358 1.059346 -0.617534
v 0.713638 1.048567 -0.474858
v 0.697345 1.136220 -0.528855
v 0.125129 0.980718 -0.508820
v 0.170925 1.031805 -0.557869
v -0.571414 0.805855 0.618070
v -0.588402 0.813101 0.594607
v -0.884677 0.669946 0.609120
v -0.896964 0.679405 0.585811
v -0.913399 0.664042 0.587159
v -0.919405 0.626075 -0.646365
v -0.945938 0.621309 -0.624744
v -0.931140 0.636756 -0.624277
v -0.611314 0.774726 -0.645097
v -0.627806 0.782507 -0.623052
v -1.067672 0.658118 0.063600
v -1.069213 0.655820 0.004724
v -1.088454 0.641201 0.017271
v -1.086411 0.642624 0.058363
v -0.761271 0.786292 0.062756
v -0.762366 0.784874 0.003496
v 0.545946 0.842503 0.787206
v 0.550907 0.833766 0.808518
v 0.702764 0.021943 0.054823
v 0.701276 0.021943 0.013774
v 0.487786 0.934218 -0.625983
v 0.497629 0.864201 -0.620367
v 0.586701 1.177344 -0.054536
v 0.592756 1.167391 -0.029537
v 0.478134 1.048689 -0.600113
v 0.474966 1.177344 -0.571305
v -0.931031 0.350309 0.654344
v -0.959764 0.342992 0.633560
v -1.139338 0.331572 0.015523
v -1.138055 0.332283 0.056593
v -0.948609 0.328378 -0.673198
v -0.975757 0.321626 -0.652315
v -0.000318 0.429257 0.681866
v 0.960177 0.432226 0.808518
v 0.570388 0.432226 0.808518
v 0.180832 0.432226 0.808518
v 1.151095 0.427854 0.054982
v 1.147800 0.427854 0.014553
v 0.521887 0.427846 -0.710706
v 0.863147 0.427850 -0.648718
v 0.180832 0.427846 -0.772657
v -0.000303 0.409515 -0.682186
v -0.504195 0.030677 0.699982
v -0.536367 0.383786 0.666015
v -0.519665 0.030682 -0.700208
v -0.560597 0.361576 -0.676875
vt 0.566203 0.372312
vt 0.376369 0.370250
vt 0.374617 0.301409
vt 0.564358 0.299847
vt 0.242907 0.141771
vt 0.292677 0.142526
vt 0.292998 0.169119
vt 0.245010 0.169787
vt 0.347016 0.136659
vt 0.350014 0.165839
vt 0.771525 0.076785
vt 0.766047 0.000000
vt 0.890130 0.003042
vt 0.861208 0.116464
vt 0.495643 0.890978
vt 0.495654 0.709474
vt 0.495664 0.527970
vt 0.645851 0.523939
vt 0.645851 0.703488
vt 0.645851 0.883038
vt 0.641802 0.887056
vt 0.799473 0.848601
vt 0.811334 0.828501
vt 0.882695 0.828537
vt 0.908473 0.852064
vt 0.011696 0.381882
vt 0.018516 0.246837
vt 0.078192 0.180392
vt 0.086445 0.367971
vt 0.499880 0.504951
vt 0.637864 0.518332
vt 0.642222 0.519260
vt 0.497405 0.518435
vt 0.651270 0.508119
vt 0.656692 0.440074
vt 0.779752 0.375715
vt 0.788485 0.465851
vt 0.821067 0.338721
vt 0.850498 0.262601
vt 0.975372 0.272717
vt 0.960603 0.334061
vt 0.145370 0.665139
vt 0.153862 0.804782
vt 0.027030 0.806427
vt 0.013515 0.672185
vt 0.290770 0.110907
vt 0.243771 0.118624
vt 0.245430 0.079961
vt 0.289747 0.058677
vt 0.973713 0.179322
vt 0.870735 0.128081
vt 0.872424 0.119013
vt 0.975929 0.171864
vt 0.561429 0.192268
vt 0.372941 0.197144
vt 0.380036 0.090232
vt 0.580164 0.091845
vt 0.868283 0.187129
vt 0.990132 0.211409
vt 0.407660 0.493905
vt 0.462734 0.509497
vt 0.461230 0.530259
vt 0.408158 0.523160
vt 0.796397 0.464858
vt 0.787545 0.374374
vt 0.932737 0.395967
vt 0.940230 0.472363
vt 0.776634 0.844370
vt 0.795181 0.920929
vt 0.645851 0.944348
vt 0.685405 0.869865
vt 0.340762 0.571008
vt 0.340762 0.653135
vt 0.270268 0.610958
vt 0.304213 0.557402
vt 0.562515 0.227425
vt 0.372866 0.232609
vt 0.667084 0.608051
vt 0.661151 0.604880
vt 0.645851 0.576123
vt 0.797326 0.556002
vt 0.801244 0.595946
vt 0.463328 0.481623
vt 0.405075 0.465226
vt 0.404430 0.414144
vt 0.461734 0.417813
vt 0.227120 0.341511
vt 0.194384 0.347884
vt 0.173248 0.223184
vt 0.232962 0.228562
vt 0.294361 0.341458
vt 0.293604 0.228047
vt 0.354097 0.224308
vt 0.361641 0.341402
vt 0.995355 0.210896
vt 0.979973 0.274789
vt 0.337048 0.535835
vt 0.297634 0.530070
vt 0.768232 0.816747
vt 0.690945 0.845115
vt 0.855505 0.120507
vt 0.759919 0.108301
vt 0.901231 0.005889
vt 0.993373 0.061631
vt 0.266350 0.663183
vt 0.328771 0.656630
vt 0.328771 0.760494
vt 0.262888 0.757331
vt 0.816127 0.933445
vt 0.806987 0.895993
vt 0.907472 0.916370
vt 0.908815 0.970413
vt 0.809183 0.595230
vt 0.805266 0.555292
vt 0.947717 0.548713
vt 0.930090 0.584321
vt 0.184125 0.142433
vt 0.154159 0.166725
vt 0.344021 0.108235
vt 0.338189 0.057392
vt 0.150425 0.880591
vt 0.027208 0.889621
vt 0.027342 0.813831
vt 0.151568 0.812087
vt 0.830827 0.815934
vt 0.948394 0.770971
vt 0.262888 0.894477
vt 0.161905 0.880767
vt 0.162992 0.812673
vt 0.261985 0.823929
vt 0.685379 0.794598
vt 0.822898 0.816747
vt 0.767010 1.000000
vt 0.679545 0.997878
vt 0.964581 0.338721
vt 0.368501 0.694456
vt 0.400728 0.580711
vt 0.462128 0.580148
vt 0.487976 0.709145
vt 0.497849 0.473875
vt 0.343180 0.525171
vt 0.344652 0.530388
vt 0.340762 0.530388
vt 0.842833 0.154926
vt 0.839498 0.150146
vt 0.480040 0.385419
vt 0.484644 0.390570
vt 0.888450 0.821064
vt 0.883799 0.816747
vt 0.442629 0.030137
vt 0.437803 0.027710
vt 0.444999 0.024471
vt 0.022588 0.809684
vt 0.161816 0.805145
vt 0.371886 0.366877
vt 0.370193 0.300357
vt 0.680978 0.789800
vt 0.672608 0.704810
vt 0.663115 0.608411
vt 0.936776 0.396722
vt 0.944222 0.472649
vt 0.799473 0.919806
vt 0.799473 0.999902
vt 0.487934 0.890644
vt 0.951664 0.548531
vt 0.844605 0.262468
vt 0.862086 0.186823
vt 0.934048 0.583965
vt 0.943135 0.677506
vt 0.951664 0.765296
vt 0.980572 0.170707
vt 1.000000 0.209811
vt 0.753782 0.187047
vt 0.756036 0.222071
vt 0.752164 0.222242
vt 0.749917 0.187392
vt 0.368501 0.233876
vt 0.756036 0.143727
vt 0.218448 0.123621
vt 0.912480 0.916672
vt 0.913965 0.971917
vt 0.913965 0.844243
vt 0.290072 0.000000
vt 0.333890 0.018540
vt 0.394271 0.374374
vt 0.262888 0.607035
vt 0.282547 0.541503
vt 0.270433 0.525171
vt 0.338996 0.656630
vt 0.266881 0.614313
vt 0.016812 0.241623
vt 0.075565 0.176478
vt 0.376231 0.086900
vt 0.262051 0.816487
vt 0.593958 0.017908
vt 0.597010 0.012236
vt 0.136878 0.525496
vt 0.144805 0.525171
vt 0.153311 0.665158
vt 0.997320 0.065129
vt 0.004875 0.516926
vt 0.000000 0.520486
vt 0.006961 0.384533
vt 0.248913 0.053561
vt 0.262470 0.671520
vt 0.262888 0.526554
vt 0.009264 0.676342
vt 0.745288 0.005680
vt 0.749021 0.000000
vt 0.000000 0.537943
vt 0.754099 0.298285
vt 0.756036 0.374374
vt 0.368501 0.875958
vt 0.226387 0.525171
vt 0.297422 0.525171
vt 0.368501 0.525171
vt 0.196913 0.523724
vt 0.193312 0.519584
vt 0.093167 0.518171
vt 0.747529 0.093654
vn 0.6119 0.0594 0.7887
vn 0.5305 0.5010 0.6838
vn 0.0000 0.5571 0.8304
vn 0.0000 0.0000 1.0000
vn -0.1356 0.3172 -0.9386
vn 0.3489 0.0199 -0.9369
vn 0.3307 0.1693 -0.9284
vn -0.0438 0.2649 -0.9633
vn 0.7097 0.1364 -0.6912
vn 0.6874 0.2534 -0.6806
vn -0.1024 0.9341 -0.3419
vn -0.2093 0.9180 -0.3369
vn -0.2520 0.9666 -0.0456
vn -0.1311 0.9913 -0.0111
vn 0.7693 -0.6357 0.0630
vn 0.9944 0.1057 -0.0060
vn 0.8916 0.4203 -0.1686
vn 0.5294 -0.4137 0.7407
vn 0.6617 -0.6887 0.2961
vn -0.3139 0.6392 -0.7020
vn -0.5922 0.6717 -0.4451
vn -0.3298 0.9440 -0.0005
vn -0.3352 0.9386 0.0814
vn -0.3392 0.1122 -0.9340
vn -0.3672 0.3879 -0.8454
vn -0.0269 0.5688 -0.8220
vn -0.0104 0.0793 -0.9968
vn 0.5553 0.8314 0.0205
vn 0.1732 0.9828 0.0634
vn 0.2506 0.9449 0.2104
vn 0.6673 0.7143 -0.2105
vn 0.1234 -0.7041 -0.6993
vn 0.5149 -0.5910 -0.6209
vn 0.7479 -0.6377 -0.1843
vn 0.0000 -1.0000 0.0000
vn -0.0135 0.9586 0.2842
vn -0.0111 0.9999 0.0043
vn -0.9827 0.1522 -0.1057
vn -0.8761 0.4747 -0.0838
vn -0.7967 0.3938 -0.4585
vn -0.8351 0.1426 -0.5312
vn 0.3103 0.0947 -0.9459
vn -0.2332 0.3419 -0.9103
vn -0.3470 0.2000 -0.9163
vn 0.2567 0.1407 -0.9562
vn -0.0526 0.9981 0.0314
vn -0.0777 0.9968 0.0190
vn -0.0957 0.9954 0.0015
vn -0.1244 0.9802 0.1541
vn -0.3193 0.0482 0.9464
vn -0.2949 0.6331 0.7157
vn -0.1336 0.6104 0.7807
vn -0.0389 0.0975 0.9944
vn -0.0083 0.9963 0.0850
vn -0.0201 0.9996 0.0194
vn 0.8123 0.3296 -0.4812
vn 0.7704 0.3826 -0.5099
vn 0.0000 -0.9794 0.2018
vn -0.1748 0.8717 0.4578
vn -0.0093 0.6091 0.7930
vn -0.0657 0.7849 0.6161
vn -0.3573 0.7522 0.5536
vn -0.6239 0.7159 -0.3135
vn -0.3888 0.9056 0.1691
vn -0.7197 0.6847 0.1145
vn -0.7942 0.4827 -0.3691
vn -0.3001 0.0098 0.9539
vn -0.2796 0.5182 0.8083
vn -0.0568 -0.9886 -0.1392
vn -0.3372 -0.6984 -0.6312
vn -0.0941 -0.6479 -0.7559
vn 0.8528 0.2581 -0.4540
vn 0.7032 0.1300 -0.6990
vn 0.7137 0.1315 -0.6880
vn 0.8762 0.2202 -0.4286
vn -0.0936 0.1063 -0.9899
vn -0.1972 0.0832 -0.9768
vn -0.1069 0.4025 -0.9091
vn -0.0655 0.3323 -0.9409
vn 0.2077 0.1743 -0.9625
vn 0.2747 0.3048 -0.9119
vn 0.6557 0.3391 -0.6745
vn 0.6008 0.2181 -0.7690
vn -0.0959 0.9701 0.2227
vn 0.0000 0.9811 0.1933
vn -0.3658 0.8712 0.3273
vn -0.4601 0.8283 0.3196
vn -0.1809 0.9834 0.0102
vn -0.3436 0.7782 -0.5256
vn -0.2494 0.9682 0.0167
vn -0.2357 0.9402 0.2459
vn -0.0191 0.7955 -0.6056
vn -0.1210 0.9860 0.1143
vn 0.5143 0.5658 -0.6444
vn 0.6185 0.7815 -0.0818
vn -0.0752 -0.9701 0.2309
vn -0.0396 -0.9850 0.1679
vn -0.5289 0.7709 -0.3550
vn -0.5484 0.8312 -0.0916
vn -0.7797 -0.6145 0.1203
vn -0.6455 -0.5783 0.4988
vn -0.5354 0.8414 0.0730
vn -0.5017 0.8012 0.3261
vn -0.6482 -0.5959 -0.4739
vn -0.7790 -0.6206 -0.0895
vn 0.6729 0.6225 0.3995
vn 0.6143 0.6902 0.3824
vn 0.8313 0.2857 -0.4767
vn 0.9308 0.1393 -0.3381
vn -0.3024 -0.4850 -0.8205
vn -0.3669 0.4452 0.8167
vn -0.7634 0.4416 0.4713
vn -0.8651 0.4847 0.1288
vn -0.2569 -0.4275 -0.8667
vn -0.0047 -0.5213 -0.8533
vn 0.0000 -0.5499 0.8352
vn -0.2350 -0.5046 0.8307
vn -0.2474 -0.5714 0.7825
vn -0.0115 -0.5089 0.8607
vn -0.2593 -0.4011 0.8785
vn -0.3385 0.1676 0.9259
vn -0.8104 0.1908 0.5539
vn -0.9731 0.1663 0.1596
usemtl None
s 1
f 116/1/1 59/2/2 100/3/3 117/4/4
f 44/5/5 104/6/6 23/7/7 52/8/8
f 104/6/6 19/9/9 53/10/10 23/7/7
f 66/11/11 92/12/12 98/13/13 67/14/14
f 25/15/15 119/16/16 56/17/17 59/18/2 116/19/1 16/20/18 17/21/19
f 78/22/20 82/23/21 75/24/22 70/25/23
f 113/26/24 88/27/25 91/28/26 128/29/27
f 26/30/28 1/31/29 60/32/30 55/33/31
f 6/34/32 2/35/33 24/36/34 102/37/35
f 26/38/28 11/39/36 7/40/37 1/41/29
f 111/42/38 95/43/39 89/44/40 114/45/41
f 103/46/42 43/47/43 77/48/44 107/49/45
f 3/50/46 40/51/47 68/52/48 63/53/49
f 115/54/50 64/55/51 83/56/52 126/57/53
f 48/58/54 40/51/47 3/50/46 5/59/55
f 19/60/9 27/61/56 58/62/57 53/63/10
f 101/64/35 25/65/15 17/66/19 15/67/58
f 47/68/59 10/69/60 106/70/61 69/71/62
f 11/39/36 48/58/54 5/59/55 7/40/37
f 33/72/63 38/73/64 76/74/65 81/75/66
f 118/76/67 61/77/68 64/55/51 115/54/50
f 30/78/69 32/79/70 4/80/71 49/81/35 41/82/35
f 28/83/72 18/84/73 79/85/74 71/86/75
f 123/87/76 124/88/77 65/89/78 51/90/79
f 121/91/80 22/92/81 54/93/82 122/94/83
f 7/40/37 5/59/55 62/95/84 99/96/85
f 43/97/43 33/72/63 81/75/66 77/98/44
f 37/99/86 47/68/59 69/71/62 74/100/87
f 39/101/88 34/102/89 66/11/11 67/14/14
f 68/52/48 97/103/90 84/104/91 63/53/49
f 108/105/92 78/106/20 70/107/23 105/108/93
f 80/109/94 108/110/92 105/111/93 72/112/95
f 42/113/35 50/114/35 46/115/96 35/116/97
f 34/117/89 44/5/5 52/8/8 66/118/11
f 18/119/73 103/46/42 107/49/45 79/120/74
f 4/80/71 6/34/32 102/37/35 49/81/35
f 98/121/13 92/122/12 90/123/98 94/124/99
f 20/125/100 42/113/35 35/116/97 9/126/101
f 84/127/91 97/128/90 93/129/102 86/130/103
f 5/59/55 3/50/46 63/53/49 62/95/84
f 123/87/76 51/90/79 22/92/81 121/91/80
f 13/131/104 30/78/69 41/82/35 21/132/105
f 10/69/60 29/133/106 73/134/107 106/70/61
f 50/114/35 101/64/35 15/67/58 46/115/96
f 1/41/29 7/40/37 99/96/85 60/135/30
f 117/4/4 100/3/3 61/77/68 118/76/67
f 122/136/83 54/137/82 57/138/108 120/139/109
f 26/30/28 27/61/56 28/83/72 29/140/106
f 30/141/69 31/142/110 32/143/70
f 37/144/86 38/145/64 39/101/88 40/51/47
f 55/33/31 56/17/17 57/138/108 58/62/57
f 71/86/75 72/146/95 73/147/107
f 74/148/87 75/24/22 76/149/65
f 85/150/111 86/151/103 87/152/112
f 88/153/25 89/44/40 90/123/98
f 93/129/102 94/124/99 95/43/39 96/154/113
f 60/155/30 99/156/85 100/3/3 59/2/2
f 30/78/69 13/131/104 12/157/114 127/158/115 31/159/110
f 23/7/7 53/10/10 54/93/82 22/92/81
f 55/33/31 60/32/30 59/18/2 56/17/17
f 15/67/58 17/66/19 16/160/18 14/161/116
f 43/47/43 103/46/42 104/6/6 44/5/5
f 25/65/15 101/64/35 102/37/35 24/36/34
f 53/63/10 58/62/57 57/138/108 54/137/82
f 11/162/36 26/163/28 29/133/106 10/69/60
f 42/113/35 20/125/100 21/132/105 41/82/35
f 119/16/16 25/15/15 24/164/34 120/139/109
f 46/115/96 15/67/58 14/161/116 45/165/117
f 48/58/54 11/39/36 10/166/60 47/167/59
f 9/126/101 35/116/97 36/168/118 125/169/119 8/170/120
f 62/95/84 63/53/49 64/171/51 61/172/68
f 52/8/8 23/7/7 22/92/81 51/90/79
f 50/114/35 42/113/35 41/82/35 49/81/35
f 66/118/11 52/8/8 51/90/79 65/89/78
f 35/173/97 46/174/96 45/175/117 36/176/118
f 40/51/47 48/58/54 47/167/59 37/144/86
f 99/156/85 62/177/84 61/77/68 100/3/3
f 101/64/35 50/114/35 49/81/35 102/37/35
f 28/83/72 71/86/75 73/147/107 29/140/106
f 103/46/42 18/119/73 19/9/9 104/6/6
f 18/84/73 28/83/72 27/61/56 19/60/9
f 34/102/89 39/101/88 38/145/64 33/178/63
f 33/179/63 43/47/43 44/5/5 34/117/89
f 58/62/57 27/61/56 26/30/28 55/33/31
f 68/52/48 40/51/47 39/101/88 67/14/14
f 106/180/61 73/181/107 72/112/95 105/111/93
f 74/148/87 69/182/62 70/25/23 75/24/22
f 108/183/92 80/184/94 79/120/74 107/49/45
f 80/185/94 72/146/95 71/86/75 79/85/74
f 81/75/66 76/74/65 75/186/22 82/187/21
f 82/187/21 78/188/20 77/98/44 81/75/66
f 76/74/65 38/73/64 37/189/86 74/190/87
f 93/129/102 97/128/90 98/121/13 94/124/99
f 91/28/26 88/27/25 90/191/98 92/192/12
f 89/44/40 95/43/39 94/124/99 90/123/98
f 85/150/111 83/56/52 84/193/91 86/151/103
f 96/154/113 87/194/112 86/130/103 93/129/102
f 109/195/121 85/150/111 87/152/112 110/196/122
f 111/42/38 21/197/105 20/198/100 112/199/123
f 63/53/49 84/104/91 83/200/52 64/171/51
f 67/14/14 98/13/13 97/103/90 68/52/48
f 65/89/78 91/28/26 92/192/12 66/118/11
f 113/26/24 12/201/114 13/202/104 114/203/41
f 69/182/62 106/180/61 105/111/93 70/25/23
f 78/204/20 108/183/92 107/49/45 77/48/44
f 110/205/122 87/194/112 96/154/113 112/199/123
f 9/206/101 110/205/122 112/199/123 20/198/100
f 88/153/25 113/207/24 114/45/41 89/44/40
f 95/43/39 111/42/38 112/199/123 96/154/113
f 8/208/120 109/195/121 110/196/122 9/209/101
f 21/197/105 111/42/38 114/45/41 13/210/104
f 14/211/116 117/4/4 118/76/67 45/175/117
f 45/175/117 118/76/67 115/54/50 36/176/118
f 16/212/18 116/1/1 117/4/4 14/211/116
f 56/17/17 119/16/16 120/139/109 57/138/108
f 2/213/33 122/136/83 120/139/109 24/164/34
f 4/214/71 123/87/76 121/91/80 6/215/32
f 6/215/32 121/91/80 122/94/83 2/216/33
f 32/217/70 31/218/110 124/88/77 123/87/76 4/214/71
f 12/201/114 113/26/24 128/29/27 127/219/115
f 36/176/118 115/54/50 126/57/53 125/220/119
f 126/57/53 83/56/52 85/150/111 109/195/121
f 125/220/119 126/57/53 109/195/121 8/208/120
f 127/219/115 128/29/27 124/88/77 31/218/110
f 128/29/27 91/28/26 65/89/78 124/88/77
